<svg xmlns="http://www.w3.org/2000/svg" xmlns:xlink="http://www.w3.org/1999/xlink" width="300" zoomAndPan="magnify" viewBox="0 0 224.87999 149.999998" height="200" preserveAspectRatio="xMidYMid meet" version="1.0"><defs><g/><clipPath id="2f2ac6ec98"><path d="M 89.820312 35.300781 L 118 35.300781 L 118 50 L 89.820312 50 Z M 89.820312 35.300781 " clip-rule="nonzero"/></clipPath><clipPath id="892a51b1ac"><path d="M 118 58 L 134.796875 58 L 134.796875 75 L 118 75 Z M 118 58 " clip-rule="nonzero"/></clipPath><clipPath id="96811a6dfc"><path d="M 89.820312 48 L 109 48 L 109 75 L 89.820312 75 Z M 89.820312 48 " clip-rule="nonzero"/></clipPath></defs><g fill="#ff8d55" fill-opacity="0.4"><g transform="translate(34.092206, 67.760528)"><g><path d="M 14.21875 0.355469 L 14.855469 0.355469 C 20.941406 0.320312 24.40625 -3.644531 24.65625 -7.570312 C 24.9375 -11.671875 21.824219 -16.273438 14.328125 -17.226562 L 14.253906 -17.226562 C 11.53125 -17.546875 8.703125 -18.890625 8.84375 -20.871094 C 8.949219 -22.285156 11.070312 -23.59375 14.925781 -23.417969 L 15.035156 -23.417969 C 17.15625 -23.417969 19.703125 -22.390625 21.011719 -21.4375 L 24.054688 -25.679688 C 22.039062 -27.132812 18.5 -28.617188 15.105469 -28.617188 C 7.605469 -29.007812 3.960938 -25.1875 3.644531 -21.292969 C 3.464844 -19.03125 4.421875 -16.800781 6.261719 -15.105469 C 8.066406 -13.441406 10.648438 -12.378906 13.691406 -12.0625 C 17.828125 -11.496094 19.5625 -9.585938 19.457031 -7.921875 C 19.347656 -6.402344 17.722656 -4.882812 14.785156 -4.882812 L 14.609375 -4.882812 C 14.574219 -4.882812 10.71875 -4.667969 8.347656 -6.613281 C 7.746094 -7.074219 7.25 -7.640625 6.792969 -8.3125 L 2.476562 -5.375 C 3.183594 -4.316406 4.066406 -3.359375 5.058594 -2.546875 C 8.277344 0.0703125 12.523438 0.355469 14.21875 0.355469 Z M 14.21875 0.355469 "/></g></g></g><g fill="#ff8d55" fill-opacity="0.4"><g transform="translate(61.22238, 67.760528)"><g><path d="M 23.734375 -28.300781 L 2.476562 -28.300781 L 2.476562 -23.027344 L 10.46875 -23.027344 L 10.46875 0 L 15.742188 0 L 15.742188 -23.027344 L 23.734375 -23.027344 Z M 23.734375 -28.300781 "/></g></g></g><g fill="#e2a165" fill-opacity="1"><g transform="translate(36.156484, 66.968126)"><g><path d="M 14.21875 0.355469 L 14.855469 0.355469 C 20.941406 0.320312 24.40625 -3.644531 24.65625 -7.570312 C 24.9375 -11.671875 21.824219 -16.273438 14.328125 -17.226562 L 14.253906 -17.226562 C 11.53125 -17.546875 8.703125 -18.890625 8.84375 -20.871094 C 8.949219 -22.285156 11.070312 -23.59375 14.925781 -23.417969 L 15.035156 -23.417969 C 17.15625 -23.417969 19.703125 -22.390625 21.011719 -21.4375 L 24.054688 -25.679688 C 22.039062 -27.132812 18.5 -28.617188 15.105469 -28.617188 C 7.605469 -29.007812 3.960938 -25.1875 3.644531 -21.292969 C 3.464844 -19.03125 4.421875 -16.800781 6.261719 -15.105469 C 8.066406 -13.441406 10.648438 -12.378906 13.691406 -12.0625 C 17.828125 -11.496094 19.5625 -9.585938 19.457031 -7.921875 C 19.347656 -6.402344 17.722656 -4.882812 14.785156 -4.882812 L 14.609375 -4.882812 C 14.574219 -4.882812 10.71875 -4.667969 8.347656 -6.613281 C 7.746094 -7.074219 7.25 -7.640625 6.792969 -8.3125 L 2.476562 -5.375 C 3.183594 -4.316406 4.066406 -3.359375 5.058594 -2.546875 C 8.277344 0.0703125 12.523438 0.355469 14.21875 0.355469 Z M 14.21875 0.355469 "/></g></g></g><g fill="#e2a165" fill-opacity="1"><g transform="translate(63.286658, 66.968126)"><g><path d="M 23.734375 -28.300781 L 2.476562 -28.300781 L 2.476562 -23.027344 L 10.46875 -23.027344 L 10.46875 0 L 15.742188 0 L 15.742188 -23.027344 L 23.734375 -23.027344 Z M 23.734375 -28.300781 "/></g></g></g><g fill="#ff8d55" fill-opacity="0.4"><g transform="translate(87.442639, 67.760528)"><g/></g></g><g fill="#ff8d55" fill-opacity="0.4"><g transform="translate(98.054174, 67.760528)"><g/></g></g><g fill="#ff8d55" fill-opacity="0.4"><g transform="translate(108.66571, 67.760528)"><g/></g></g><g fill="#ff8d55" fill-opacity="0.4"><g transform="translate(119.277245, 67.760528)"><g/></g></g><g fill="#e2a165" fill-opacity="1"><g transform="translate(89.506917, 66.968126)"><g/></g></g><g fill="#e2a165" fill-opacity="1"><g transform="translate(100.118453, 66.968126)"><g/></g></g><g fill="#e2a165" fill-opacity="1"><g transform="translate(110.729988, 66.968126)"><g/></g></g><g fill="#e2a165" fill-opacity="1"><g transform="translate(121.341524, 66.968126)"><g/></g></g><g fill="#ff8d55" fill-opacity="0.4"><g transform="translate(129.900448, 67.760528)"><g><path d="M 23.207031 -7.886719 C 21.71875 -6.15625 19.527344 -5.09375 16.945312 -5.09375 C 11.957031 -5.09375 8.417969 -9.160156 8.417969 -14.148438 C 8.417969 -19.136719 11.957031 -23.207031 16.945312 -23.207031 C 19.527344 -23.207031 21.71875 -22.144531 23.207031 -20.410156 L 27.203125 -24.371094 C 24.585938 -26.988281 20.941406 -28.617188 16.945312 -28.617188 C 8.949219 -28.617188 2.476562 -22.144531 2.476562 -14.148438 C 2.476562 -6.15625 8.949219 0.320312 16.945312 0.320312 C 20.941406 0.320312 24.585938 -1.308594 27.203125 -3.925781 Z M 23.207031 -7.886719 "/></g></g></g><g fill="#ff8d55" fill-opacity="0.4"><g transform="translate(159.577381, 67.760528)"><g><path d="M 18.253906 0 L 24.585938 0 L 14.539062 -14.855469 L 24.265625 -28.300781 L 18.21875 -28.300781 L 7.78125 -13.9375 L 7.78125 -28.300781 L 2.476562 -28.300781 L 2.476562 0 L 7.78125 0 L 7.78125 -5.589844 L 11.285156 -10.433594 Z M 18.253906 0 "/></g></g></g><g fill="#e2a165" fill-opacity="1"><g transform="translate(131.964726, 66.968126)"><g><path d="M 23.207031 -7.886719 C 21.71875 -6.15625 19.527344 -5.09375 16.945312 -5.09375 C 11.957031 -5.09375 8.417969 -9.160156 8.417969 -14.148438 C 8.417969 -19.136719 11.957031 -23.207031 16.945312 -23.207031 C 19.527344 -23.207031 21.71875 -22.144531 23.207031 -20.410156 L 27.203125 -24.371094 C 24.585938 -26.988281 20.941406 -28.617188 16.945312 -28.617188 C 8.949219 -28.617188 2.476562 -22.144531 2.476562 -14.148438 C 2.476562 -6.15625 8.949219 0.320312 16.945312 0.320312 C 20.941406 0.320312 24.585938 -1.308594 27.203125 -3.925781 Z M 23.207031 -7.886719 "/></g></g></g><g fill="#e2a165" fill-opacity="1"><g transform="translate(161.64166, 66.968126)"><g><path d="M 18.253906 0 L 24.585938 0 L 14.539062 -14.855469 L 24.265625 -28.300781 L 18.21875 -28.300781 L 7.78125 -13.9375 L 7.78125 -28.300781 L 2.476562 -28.300781 L 2.476562 0 L 7.78125 0 L 7.78125 -5.589844 L 11.285156 -10.433594 Z M 18.253906 0 "/></g></g></g><g fill="#ffffff" fill-opacity="0.4"><g transform="translate(14.262945, 110.809864)"><g><path d="M 26.035156 -28.300781 L 20.234375 -28.300781 L 14.253906 -14.042969 L 8.3125 -28.300781 L 2.476562 -28.300781 L 2.476562 0 L 7.78125 0 L 7.78125 -15.636719 L 11.355469 -7.109375 L 17.15625 -7.109375 L 20.765625 -15.707031 L 20.765625 0 L 26.035156 0 Z M 26.035156 -28.300781 "/></g></g></g><g fill="#ffffff" fill-opacity="0.4"><g transform="translate(42.772609, 110.809864)"><g><path d="M 19.171875 0 L 24.691406 0 L 16.378906 -28.226562 L 16.378906 -28.300781 L 10.824219 -28.300781 L 2.476562 0 L 8.03125 0 L 10.117188 -7.039062 L 17.085938 -7.039062 Z M 11.671875 -12.308594 L 13.617188 -18.890625 L 15.527344 -12.308594 Z M 11.671875 -12.308594 "/></g></g></g><g fill="#ffffff" fill-opacity="0.4"><g transform="translate(69.938149, 110.809864)"><g><path d="M 19.277344 -28.300781 L 19.277344 -9.195312 L 8.277344 -28.300781 L 2.476562 -28.300781 L 2.476562 0 L 7.78125 0 L 7.78125 -17.722656 L 17.96875 0 L 24.585938 0 L 24.585938 -28.300781 Z M 19.277344 -28.300781 "/></g></g></g><g fill="#ffffff" fill-opacity="0.4"><g transform="translate(96.997579, 110.809864)"><g><path d="M 19.171875 0 L 24.691406 0 L 16.378906 -28.226562 L 16.378906 -28.300781 L 10.824219 -28.300781 L 2.476562 0 L 8.03125 0 L 10.117188 -7.039062 L 17.085938 -7.039062 Z M 11.671875 -12.308594 L 13.617188 -18.890625 L 15.527344 -12.308594 Z M 11.671875 -12.308594 "/></g></g></g><g fill="#ffffff" fill-opacity="0.4"><g transform="translate(124.163118, 110.809864)"><g><path d="M 31.234375 -16.519531 L 18.039062 -16.519531 L 18.039062 -11.105469 L 25.042969 -11.105469 C 23.949219 -7.605469 20.90625 -5.058594 16.945312 -5.058594 C 11.957031 -5.058594 8.417969 -9.125 8.417969 -14.113281 C 8.417969 -19.101562 11.957031 -23.167969 16.945312 -23.167969 C 18.710938 -23.167969 20.304688 -22.675781 21.578125 -21.789062 L 25.539062 -25.753906 C 23.132812 -27.519531 20.164062 -28.582031 16.945312 -28.582031 C 8.949219 -28.582031 2.476562 -22.109375 2.476562 -14.113281 C 2.476562 -6.121094 8.949219 0.355469 16.945312 0.355469 C 24.9375 0.355469 31.410156 -6.121094 31.410156 -14.113281 C 31.410156 -14.925781 31.339844 -15.742188 31.234375 -16.519531 Z M 31.234375 -16.519531 "/></g></g></g><g fill="#ffffff" fill-opacity="0.4"><g transform="translate(158.049299, 110.809864)"><g><path d="M 18.890625 -23.0625 L 18.890625 -28.335938 L 2.476562 -28.335938 L 2.476562 0 L 18.890625 0 L 18.890625 -5.269531 L 7.78125 -5.269531 L 7.78125 -11.566406 L 14.398438 -11.566406 L 14.398438 -16.835938 L 7.78125 -16.835938 L 7.78125 -23.0625 Z M 18.890625 -23.0625 "/></g></g></g><g fill="#ffffff" fill-opacity="0.4"><g transform="translate(179.41387, 110.809864)"><g><path d="M 24.585938 -17.6875 C 24.585938 -23.558594 21.894531 -28.300781 14.679688 -28.300781 L 2.476562 -28.300781 L 2.476562 0 L 7.78125 0 L 7.78125 -7.039062 L 14.679688 -7.039062 C 15.316406 -7.039062 15.917969 -7.074219 16.484375 -7.144531 L 19.03125 0 L 24.585938 0 L 21.367188 -9.054688 C 23.699219 -11 24.585938 -14.148438 24.585938 -17.6875 Z M 7.78125 -12.34375 L 7.78125 -23.027344 L 14.679688 -23.027344 C 17.296875 -23.027344 18.003906 -22.144531 18.253906 -21.859375 C 18.925781 -21.011719 19.277344 -19.527344 19.277344 -17.6875 C 19.277344 -15.742188 18.925781 -14.253906 18.289062 -13.476562 C 17.6875 -12.699219 16.484375 -12.34375 14.679688 -12.34375 Z M 7.78125 -12.34375 "/></g></g></g><g fill="#6cf9d7" fill-opacity="1"><g transform="translate(16.327224, 110.017464)"><g><path d="M 26.035156 -28.300781 L 20.234375 -28.300781 L 14.253906 -14.042969 L 8.3125 -28.300781 L 2.476562 -28.300781 L 2.476562 0 L 7.78125 0 L 7.78125 -15.636719 L 11.355469 -7.109375 L 17.15625 -7.109375 L 20.765625 -15.707031 L 20.765625 0 L 26.035156 0 Z M 26.035156 -28.300781 "/></g></g></g><g fill="#6cf9d7" fill-opacity="1"><g transform="translate(44.836888, 110.017464)"><g><path d="M 19.171875 0 L 24.691406 0 L 16.378906 -28.226562 L 16.378906 -28.300781 L 10.824219 -28.300781 L 2.476562 0 L 8.03125 0 L 10.117188 -7.039062 L 17.085938 -7.039062 Z M 11.671875 -12.308594 L 13.617188 -18.890625 L 15.527344 -12.308594 Z M 11.671875 -12.308594 "/></g></g></g><g fill="#6cf9d7" fill-opacity="1"><g transform="translate(72.002428, 110.017464)"><g><path d="M 19.277344 -28.300781 L 19.277344 -9.195312 L 8.277344 -28.300781 L 2.476562 -28.300781 L 2.476562 0 L 7.78125 0 L 7.78125 -17.722656 L 17.96875 0 L 24.585938 0 L 24.585938 -28.300781 Z M 19.277344 -28.300781 "/></g></g></g><g fill="#6cf9d7" fill-opacity="1"><g transform="translate(99.061857, 110.017464)"><g><path d="M 19.171875 0 L 24.691406 0 L 16.378906 -28.226562 L 16.378906 -28.300781 L 10.824219 -28.300781 L 2.476562 0 L 8.03125 0 L 10.117188 -7.039062 L 17.085938 -7.039062 Z M 11.671875 -12.308594 L 13.617188 -18.890625 L 15.527344 -12.308594 Z M 11.671875 -12.308594 "/></g></g></g><g fill="#6cf9d7" fill-opacity="1"><g transform="translate(126.227397, 110.017464)"><g><path d="M 31.234375 -16.519531 L 18.039062 -16.519531 L 18.039062 -11.105469 L 25.042969 -11.105469 C 23.949219 -7.605469 20.90625 -5.058594 16.945312 -5.058594 C 11.957031 -5.058594 8.417969 -9.125 8.417969 -14.113281 C 8.417969 -19.101562 11.957031 -23.167969 16.945312 -23.167969 C 18.710938 -23.167969 20.304688 -22.675781 21.578125 -21.789062 L 25.539062 -25.753906 C 23.132812 -27.519531 20.164062 -28.582031 16.945312 -28.582031 C 8.949219 -28.582031 2.476562 -22.109375 2.476562 -14.113281 C 2.476562 -6.121094 8.949219 0.355469 16.945312 0.355469 C 24.9375 0.355469 31.410156 -6.121094 31.410156 -14.113281 C 31.410156 -14.925781 31.339844 -15.742188 31.234375 -16.519531 Z M 31.234375 -16.519531 "/></g></g></g><g fill="#6cf9d7" fill-opacity="1"><g transform="translate(160.113578, 110.017464)"><g><path d="M 18.890625 -23.0625 L 18.890625 -28.335938 L 2.476562 -28.335938 L 2.476562 0 L 18.890625 0 L 18.890625 -5.269531 L 7.78125 -5.269531 L 7.78125 -11.566406 L 14.398438 -11.566406 L 14.398438 -16.835938 L 7.78125 -16.835938 L 7.78125 -23.0625 Z M 18.890625 -23.0625 "/></g></g></g><g fill="#6cf9d7" fill-opacity="1"><g transform="translate(181.478148, 110.017464)"><g><path d="M 24.585938 -17.6875 C 24.585938 -23.558594 21.894531 -28.300781 14.679688 -28.300781 L 2.476562 -28.300781 L 2.476562 0 L 7.78125 0 L 7.78125 -7.039062 L 14.679688 -7.039062 C 15.316406 -7.039062 15.917969 -7.074219 16.484375 -7.144531 L 19.03125 0 L 24.585938 0 L 21.367188 -9.054688 C 23.699219 -11 24.585938 -14.148438 24.585938 -17.6875 Z M 7.78125 -12.34375 L 7.78125 -23.027344 L 14.679688 -23.027344 C 17.296875 -23.027344 18.003906 -22.144531 18.253906 -21.859375 C 18.925781 -21.011719 19.277344 -19.527344 19.277344 -17.6875 C 19.277344 -15.742188 18.925781 -14.253906 18.289062 -13.476562 C 17.6875 -12.699219 16.484375 -12.34375 14.679688 -12.34375 Z M 7.78125 -12.34375 "/></g></g></g><path fill="#737373" d="M 100.132812 51.332031 L 121.078125 40.859375 L 119.488281 40.066406 L 98.542969 50.539062 Z M 100.132812 51.332031 " fill-opacity="1" fill-rule="nonzero"/><g clip-path="url(#2f2ac6ec98)"><path fill="#737373" d="M 90.480469 46.503906 L 96.527344 49.53125 L 117.472656 39.058594 L 110.214844 35.425781 C 109.960938 35.300781 109.660156 35.300781 109.40625 35.425781 C 109.40625 35.425781 90.539062 44.863281 90.480469 44.890625 C 89.828125 45.21875 89.832031 46.179688 90.480469 46.503906 Z M 90.480469 46.503906 " fill-opacity="1" fill-rule="nonzero"/></g><path fill="#737373" d="M 129.144531 44.890625 L 123.09375 41.867188 L 102.148438 52.339844 L 109.40625 55.96875 C 109.664062 56.097656 109.960938 56.097656 110.214844 55.96875 C 110.214844 55.96875 129.105469 46.523438 129.144531 46.503906 C 129.796875 46.179688 129.792969 45.21875 129.144531 44.890625 Z M 129.144531 44.890625 " fill-opacity="1" fill-rule="nonzero"/><path fill="#737373" d="M 126.9375 56.964844 C 127.875 56.964844 128.785156 57.09375 129.640625 57.34375 L 129.640625 48.265625 C 129.640625 48.265625 110.816406 57.652344 110.710938 57.691406 L 110.710938 74.648438 L 117.933594 71.035156 C 117.347656 69.773438 117.023438 68.367188 117.023438 66.882812 C 117.023438 61.410156 121.464844 56.964844 126.9375 56.964844 Z M 126.9375 56.964844 " fill-opacity="1" fill-rule="nonzero"/><g clip-path="url(#892a51b1ac)"><path fill="#737373" d="M 126.9375 58.769531 C 122.464844 58.769531 118.824219 62.40625 118.824219 66.882812 C 118.824219 71.355469 122.464844 74.992188 126.9375 74.992188 C 131.410156 74.992188 135.050781 71.355469 135.050781 66.882812 C 135.050781 62.40625 131.410156 58.769531 126.9375 58.769531 Z M 131.179688 65.117188 L 126.375 69.925781 C 126.027344 70.273438 125.445312 70.273438 125.097656 69.925781 C 125.097656 69.921875 122.695312 67.519531 122.695312 67.519531 C 122.34375 67.167969 122.34375 66.597656 122.695312 66.246094 C 123.046875 65.894531 123.617188 65.894531 123.96875 66.246094 L 125.734375 68.011719 L 129.90625 63.839844 C 130.257812 63.488281 130.828125 63.488281 131.179688 63.839844 C 131.53125 64.195312 131.53125 64.765625 131.179688 65.117188 Z M 131.179688 65.117188 " fill-opacity="1" fill-rule="nonzero"/></g><g clip-path="url(#96811a6dfc)"><path fill="#737373" d="M 89.980469 64.628906 C 89.980469 64.96875 90.171875 65.277344 90.476562 65.429688 L 108.910156 74.648438 L 108.910156 57.691406 C 108.808594 57.652344 89.980469 48.265625 89.980469 48.265625 Z M 93.679688 58.367188 C 93.90625 57.921875 94.445312 57.742188 94.890625 57.960938 L 98.496094 59.765625 C 98.941406 59.988281 99.121094 60.527344 98.898438 60.972656 C 98.671875 61.425781 98.109375 61.585938 97.691406 61.378906 C 97.6875 61.375 94.085938 59.574219 94.085938 59.574219 C 93.640625 59.351562 93.457031 58.8125 93.679688 58.367188 Z M 93.679688 61.972656 C 93.90625 61.527344 94.445312 61.347656 94.890625 61.566406 L 100.300781 64.273438 C 100.746094 64.496094 100.925781 65.035156 100.703125 65.480469 C 100.476562 65.933594 99.914062 66.09375 99.492188 65.882812 C 99.488281 65.882812 94.085938 63.179688 94.085938 63.179688 C 93.640625 62.957031 93.457031 62.417969 93.679688 61.972656 Z M 93.679688 61.972656 " fill-opacity="1" fill-rule="nonzero"/></g></svg>